REM MD5 3d552030e15d1a5d52c6b54946625134
FILE "Dexter's Laboratory - Mandark's Lab (USA).bin" BINARY
  TRACK 01 MODE2/2352
    INDEX 01 00:00:00
  TRACK 02 AUDIO
    INDEX 00 24:20:13
    INDEX 01 24:22:13
  TRACK 03 AUDIO
    INDEX 00 24:38:13
    INDEX 01 24:40:13
REM LEADOUT 41:03:13
